<svg width="36" height="36" viewBox="0 0 36 36" fill="none" xmlns="http://www.w3.org/2000/svg">
<g clip-path="url(#clip0_472_2013)">
<path d="M28 0H8C3.582 0 0 3.582 0 8V28C0 32.418 3.582 36 8 36H19.242V22.078H14.556V16.628H19.242V12.618C19.242 7.97 22.084 5.436 26.232 5.436C27.63 5.432 29.026 5.504 30.416 5.646V10.506H27.56C25.3 10.506 24.86 11.574 24.86 13.15V16.62H30.26L29.558 22.07H24.828V36H28C32.418 36 36 32.418 36 28V8C36 3.582 32.418 0 28 0Z" fill="white"/>
</g>
<defs>
<clipPath id="clip0_472_2013">
<rect width="36" height="36" fill="white"/>
</clipPath>
</defs>
</svg>
