<svg width="56" height="56" viewBox="0 0 56 56" fill="none" xmlns="http://www.w3.org/2000/svg">
<g clip-path="url(#clip0_500_1323)">
<path d="M28 49C39.598 49 49 39.598 49 28C49 16.402 39.598 7 28 7C16.402 7 7 16.402 7 28C7 39.598 16.402 49 28 49Z" stroke="#435856" stroke-width="3" stroke-linecap="round" stroke-linejoin="round"/>
<path d="M21 23.3333H21.0233" stroke="#435856" stroke-width="3" stroke-linecap="round" stroke-linejoin="round"/>
<path d="M35 23.3333H35.0233" stroke="#435856" stroke-width="3" stroke-linecap="round" stroke-linejoin="round"/>
<path d="M22.1666 35.5833C22.927 34.8073 23.8346 34.1907 24.8363 33.7698C25.8379 33.3489 26.9135 33.1321 28 33.1321C29.0864 33.1321 30.162 33.3489 31.1637 33.7698C32.1653 34.1907 33.0729 34.8073 33.8333 35.5833" stroke="#435856" stroke-width="3" stroke-linecap="round" stroke-linejoin="round"/>
</g>
<defs>
<clipPath id="clip0_500_1323">
<rect width="56" height="56" fill="white"/>
</clipPath>
</defs>
</svg>
